<?xml version="1.0" standalone="no"?>
<svg viewBox="0 0 200 200" xmlns="http://www.w3.org/2000/svg">
  <path fill="#0099FF" d="M45.6,-75.4C59.9,-70.8,72.7,-60.1,76.6,-46.5C80.5,-32.9,75.4,-16.5,74.7,-0.4C74.1,15.7,77.9,31.4,73.8,44.7C69.8,58,57.9,68.9,44.3,74.5C30.7,80,15.3,80.3,2.3,76.3C-10.8,72.3,-21.5,64.1,-35.7,58.9C-49.8,53.6,-67.3,51.3,-74,42C-80.7,32.7,-76.5,16.3,-75.2,0.8C-73.9,-14.8,-75.5,-29.7,-69.2,-39.6C-62.9,-49.6,-48.7,-54.7,-35.9,-60.2C-23,-65.6,-11.5,-71.3,2.1,-74.9C15.7,-78.6,31.4,-80,45.6,-75.4Z" transform="translate(100 100)" />
</svg>
