<?xml version="1.0" standalone="no"?>
<svg
  width="600"
  height="600"
  viewBox="0 0 600 600"
  xmlns="http://www.w3.org/2000/svg"
>
  <g transform="translate(300,300)">
    <path d="M149.4,-219.6C192.4,-204.8,225.4,-161.4,246.6,-113.1C267.9,-64.9,277.5,-11.8,260.4,30.3C243.3,72.5,199.5,103.7,165.6,144.3C131.7,184.9,107.7,234.9,69.2,255.2C30.7,275.4,-22.3,265.8,-66.9,244.9C-111.6,224.1,-148,191.9,-170.1,154.2C-192.2,116.5,-200,73.2,-210.5,27.7C-221,-17.7,-234.2,-65.4,-220.2,-102.5C-206.2,-139.5,-165,-166.1,-123.8,-181.8C-82.5,-197.4,-41.3,-202.2,5.9,-211.5C53.2,-220.7,106.3,-234.4,149.4,-219.6Z" fill="#2BBBAD" />
  </g>
</svg>
  