<?xml version="1.0" standalone="no"?>
<svg
  width="600"
  height="600"
  viewBox="0 0 600 600"
  xmlns="http://www.w3.org/2000/svg"
>
  <g transform="translate(300,300)">
    <path d="M134.9,-215.1C171.5,-186.5,195.3,-143.3,219.4,-98C243.5,-52.7,267.7,-5.4,263.6,39.4C259.4,84.1,226.8,126.2,189.7,158.7C152.7,191.2,111.1,214.1,66.4,228.3C21.6,242.4,-26.4,247.9,-71.4,237.3C-116.3,226.7,-158.3,200.1,-185.5,163.6C-212.7,127.1,-225.1,80.6,-233.4,32.7C-241.8,-15.3,-246,-64.8,-228,-104.1C-210,-143.5,-169.9,-172.7,-128.2,-199C-86.5,-225.3,-43.3,-248.6,3,-253.3C49.2,-257.9,98.4,-243.8,134.9,-215.1Z" fill="#2BBBAD" />
  </g>
</svg>
  