<?xml version="1.0" standalone="no"?>
<svg viewBox="0 0 200 200" xmlns="http://www.w3.org/2000/svg">
  <path fill="#0099FF" d="M41.3,-71.4C55.5,-63.2,70.6,-56.3,79.7,-44.6C88.7,-32.9,91.9,-16.5,89.4,-1.5C86.8,13.6,78.6,27.1,69.3,38.4C60,49.7,49.5,58.7,37.8,67.5C26.1,76.3,13,85,-0.9,86.5C-14.8,88,-29.5,82.3,-43.6,74.8C-57.6,67.3,-70.9,58,-76.8,45.2C-82.8,32.4,-81.4,16.2,-80.9,0.3C-80.4,-15.6,-80.7,-31.2,-75.6,-45.5C-70.6,-59.9,-60.2,-73,-46.7,-81.6C-33.2,-90.2,-16.6,-94.3,-1.5,-91.6C13.5,-88.9,27,-79.5,41.3,-71.4Z" transform="translate(100 100)" />
</svg>
