<?xml version="1.0" standalone="no"?>
<svg viewBox="0 0 200 200" xmlns="http://www.w3.org/2000/svg">
  <path fill="#0099FF" d="M38,-63.9C50.9,-58.4,64.2,-51.6,73.4,-40.7C82.5,-29.8,87.6,-14.9,88.4,0.5C89.2,15.9,85.8,31.7,77.8,44.5C69.7,57.2,56.9,66.8,43.2,75.5C29.4,84.2,14.7,91.9,-0.6,92.9C-15.8,93.9,-31.7,88.1,-44.1,78.7C-56.5,69.2,-65.5,56.1,-72.7,42.4C-79.9,28.7,-85.2,14.3,-86.9,-1C-88.6,-16.3,-86.6,-32.6,-79.8,-46.9C-72.9,-61.2,-61.2,-73.5,-47.1,-78.3C-33,-83.1,-16.5,-80.3,-2,-76.9C12.6,-73.5,25.1,-69.3,38,-63.9Z" transform="translate(100 100)" />
</svg>
