<?xml version="1.0" standalone="no"?>
<svg viewBox="0 0 200 200" xmlns="http://www.w3.org/2000/svg">
  <path fill="#2BBBAD" d="M37.9,-56.3C52.4,-49.6,69.7,-44.7,75.4,-33.9C81.2,-23.1,75.4,-6.6,72.8,10.4C70.2,27.3,70.8,44.5,61.5,50.9C52.3,57.3,33.2,52.7,17.1,56.9C0.9,61.2,-12.3,74.2,-23.1,73.4C-33.8,72.6,-42,58.1,-50.7,45.4C-59.4,32.7,-68.5,22,-74.9,8C-81.3,-6,-84.9,-23.2,-79.6,-37C-74.4,-50.9,-60.3,-61.3,-45.5,-68C-30.8,-74.6,-15.4,-77.3,-1.8,-74.5C11.7,-71.6,23.4,-63.1,37.9,-56.3Z" transform="translate(100 100)" />
</svg>
