<?xml version="1.0" standalone="no"?>
<svg viewBox="0 0 200 200" xmlns="http://www.w3.org/2000/svg">
  <path fill="#0099FF" d="M38.3,-64.3C51.2,-59,64.3,-51.8,70.5,-40.8C76.6,-29.8,75.8,-14.9,75.6,-0.1C75.4,14.6,75.7,29.3,69.1,39.5C62.5,49.7,49,55.6,36.3,64.5C23.6,73.4,11.8,85.4,-0.1,85.5C-12,85.7,-24,74,-35,64.1C-45.9,54.2,-55.9,46.1,-60.1,35.7C-64.2,25.3,-62.7,12.7,-65.7,-1.8C-68.8,-16.2,-76.4,-32.4,-72.6,-43.5C-68.9,-54.6,-53.7,-60.6,-39.6,-65.3C-25.6,-70,-12.8,-73.3,0,-73.2C12.7,-73.2,25.4,-69.6,38.3,-64.3Z" transform="translate(100 100)" />
</svg>
